<svg xmlns="http://www.w3.org/2000/svg" viewBox="0 0 100 100" width="100" height="100">
  <defs>
    <linearGradient id="bg" x1="0" y1="0" x2="1" y2="1">
      <stop offset="0" stop-color="#ffd98a"/>
      <stop offset="1" stop-color="#f3ad32"/>
    </linearGradient>
    <radialGradient id="core" cx="0.4" cy="0.35" r="0.8">
      <stop offset="0" stop-color="#ffe07a"/>
      <stop offset="1" stop-color="#f3ad32"/>
    </radialGradient>
  </defs>
  <rect width="100" height="100" rx="24" fill="url(#bg)"/>
  <g fill="#ffffff" stroke="#fff1d6" stroke-width="1.5">
    <ellipse cx="50" cy="24" rx="9" ry="18"/>
    <ellipse cx="50" cy="24" rx="9" ry="18" transform="rotate(45 50 50)"/>
    <ellipse cx="50" cy="24" rx="9" ry="18" transform="rotate(90 50 50)"/>
    <ellipse cx="50" cy="24" rx="9" ry="18" transform="rotate(135 50 50)"/>
    <ellipse cx="50" cy="24" rx="9" ry="18" transform="rotate(180 50 50)"/>
    <ellipse cx="50" cy="24" rx="9" ry="18" transform="rotate(225 50 50)"/>
    <ellipse cx="50" cy="24" rx="9" ry="18" transform="rotate(270 50 50)"/>
    <ellipse cx="50" cy="24" rx="9" ry="18" transform="rotate(315 50 50)"/>
  </g>
  <circle cx="50" cy="50" r="14" fill="url(#core)" stroke="#e89a23" stroke-width="2"/>
</svg>
